<?xml version="1.0" encoding="UTF-8"?>
<svg xmlns="http://www.w3.org/2000/svg" xmlns:xlink="http://www.w3.org/1999/xlink" version="1.1" viewBox="0 0 170.6 170.6">
  <!-- Generator: Adobe Illustrator 30.1.0, SVG Export Plug-In . SVG Version: 2.1.1 Build 136)  -->
  <defs>
    <style>
      .st0 {
        font-family: Roboto-Black, Roboto;
        font-size: 25.6px;
        font-weight: 800;
      }

      .st1 {
        display: none;
      }
    </style>
  </defs>
  <g id="velina" class="st1">
    <g id="ReoWXQ.tif">
      <image id="Layer_0" width="398" height="398" transform="translate(-15.7 -11.8) scale(.5)" xlink:href="QrCoder_logo-1.png"/>
    </g>
  </g>
  <g id="Layer_1">
    <g>
      <rect x="19.3" y="19.3" width="20" height="20"/>
      <path d="M54.9,54.9H3.8V3.8h51.1v51.1ZM47.3,11.4H11.4v35.9h35.9V11.4Z"/>
    </g>
    <g>
      <rect x="131.3" y="19.3" width="20" height="20"/>
      <path d="M166.8,54.9h-51.1V3.8h51.1v51.1ZM159.2,11.4h-35.9v35.9h35.9V11.4Z"/>
    </g>
    <g>
      <rect x="19.3" y="131.3" width="20" height="20"/>
      <path d="M54.9,166.8H3.8v-51.1h51.1v51.1ZM47.3,123.3H11.4v35.9h35.9v-35.9Z"/>
    </g>
    <path d="M22.6,85.3c0,6.2-5.1,11.3-11.3,11.3S0,91.5,0,85.3s5.1-11.3,11.3-11.3,11.3,5.1,11.3,11.3ZM11.3,80.3c-2.8,0-5,2.2-5,5s2.2,5,5,5,5-2.2,5-5-2.2-5-5-5Z"/>
    <rect x="17.4" y="81.7" width="25.4" height="7.1" rx="3.5" ry="3.5"/>
    <path d="M85.3,148c6.2,0,11.3,5.1,11.3,11.3s-5.1,11.3-11.3,11.3-11.3-5.1-11.3-11.3,5.1-11.3,11.3-11.3ZM80.3,159.3c0,2.8,2.2,5,5,5s5-2.2,5-5-2.2-5-5-5-5,2.2-5,5Z"/>
    <rect x="72.6" y="136.9" width="25.4" height="7.1" rx="3.5" ry="3.5" transform="translate(-55.2 225.7) rotate(-90)"/>
    <path d="M85.3,22.6c-6.2,0-11.3-5.1-11.3-11.3S79,0,85.3,0s11.3,5.1,11.3,11.3-5.1,11.3-11.3,11.3ZM90.3,11.3c0-2.8-2.2-5-5-5s-5,2.2-5,5,2.2,5,5,5,5-2.2,5-5Z"/>
    <rect x="68.9" y="30.3" width="32.8" height="7.1" rx="3.5" ry="3.5" transform="translate(119.1 -51.5) rotate(90)"/>
    <rect x="49.6" y="81.7" width="22.5" height="7.1" rx="3.5" ry="3.5"/>
    <rect x="77.4" y="109.1" width="15.8" height="7.1" rx="3.5" ry="3.5" transform="translate(-27.3 197.9) rotate(-90)"/>
    <rect x="77.4" y="54.4" width="15.8" height="7.1" rx="3.5" ry="3.5" transform="translate(143.2 -27.3) rotate(90)"/>
    <path d="M65.1,101.8H28.1c-2,0-3.5,1.6-3.5,3.5s1.6,3.5,3.5,3.5h33.4v33.4c0,2,1.6,3.5,3.5,3.5s3.5-1.6,3.5-3.5v-37c0-2-1.6-3.5-3.5-3.5Z"/>
    <path d="M105.5,101.8h37c2,0,3.5,1.6,3.5,3.5s-1.6,3.5-3.5,3.5h-33.4s0,33.4,0,33.4c0,2-1.6,3.5-3.5,3.5s-3.5-1.6-3.5-3.5v-37c0-2,1.6-3.5,3.5-3.5Z"/>
    <path d="M65.1,68.7H28.1c-2,0-3.5-1.6-3.5-3.5s1.6-3.5,3.5-3.5h33.4V28.2c0-2,1.6-3.5,3.5-3.5s3.5,1.6,3.5,3.5v37c0,2-1.6,3.5-3.5,3.5Z"/>
    <path d="M105.5,68.7h37c2,0,3.5-1.6,3.5-3.5s-1.6-3.5-3.5-3.5h-33.4V28.2c0-2-1.6-3.5-3.5-3.5s-3.5,1.6-3.5,3.5v37c0,2,1.6,3.5,3.5,3.5Z"/>
    <g>
      <path d="M115.7,132.7h17v-17h-17v17ZM117.8,117.8h12.8v12.8h-12.8v-12.8Z"/>
      <rect x="120.5" y="120.5" width="7.5" height="7.5"/>
      <path d="M115.7,166.8h17v-17h-17v17ZM117.8,151.9h12.8v12.8h-12.8v-12.8Z"/>
      <rect x="120.5" y="154.5" width="7.5" height="7.5"/>
      <path d="M166.8,115.7h-17v17h17v-17ZM164.6,130.6h-12.8v-12.8h12.8v12.8Z"/>
      <rect x="154.5" y="120.5" width="7.5" height="7.5"/>
      <rect x="135.2" y="120.6" width="2.4" height="2.4"/>
      <rect x="140" y="120.6" width="2.4" height="2.4"/>
      <rect x="140" y="115.7" width="2.4" height="2.4"/>
      <polygon points="147.3 118.1 147.3 115.7 144.9 115.7 144.9 118.1 144.9 120.6 147.3 120.6 147.3 118.1"/>
      <rect x="144.9" y="130.3" width="2.4" height="2.4"/>
      <polygon points="157 149.7 159.5 149.7 159.5 147.3 159.5 144.9 157 144.9 157 147.3 157 149.7"/>
      <polygon points="166.8 157 166.8 154.6 166.8 152.2 166.8 149.7 166.8 147.3 164.3 147.3 164.3 144.9 161.9 144.9 161.9 147.3 161.9 149.7 161.9 152.2 161.9 154.6 161.9 157 161.9 159.5 164.3 159.5 164.3 157 166.8 157"/>
      <rect x="159.5" y="159.5" width="2.4" height="2.4"/>
      <rect x="164.3" y="159.5" width="2.4" height="2.4"/>
      <polygon points="161.9 164.3 161.9 166.8 164.3 166.8 166.8 166.8 166.8 164.3 164.3 164.3 164.3 161.9 161.9 161.9 161.9 164.3"/>
      <polygon points="154.6 154.6 157 154.6 157 152.2 157 149.7 154.6 149.7 154.6 152.2 152.2 152.2 149.7 152.2 149.7 154.6 149.7 157 152.2 157 152.2 159.5 149.7 159.5 149.7 157 147.3 157 147.3 159.5 147.3 161.9 144.9 161.9 144.9 159.5 144.9 157 142.4 157 142.4 159.5 142.4 161.9 140 161.9 140 164.3 137.6 164.3 137.6 161.9 140 161.9 140 159.5 140 157 140 154.6 137.6 154.6 137.6 152.2 137.6 149.7 140 149.7 142.4 149.7 142.4 147.3 140 147.3 137.6 147.3 135.2 147.3 135.2 149.7 135.2 152.2 135.2 154.6 135.2 157 137.6 157 137.6 159.5 135.2 159.5 135.2 161.9 135.2 164.3 135.2 166.8 137.6 166.8 140 166.8 142.4 166.8 144.9 166.8 144.9 164.3 147.3 164.3 147.3 166.8 149.7 166.8 152.2 166.8 152.2 164.3 149.7 164.3 149.7 161.9 152.2 161.9 154.6 161.9 157 161.9 157 159.5 157 157 154.6 157 154.6 154.6"/>
      <rect x="157" y="154.6" width="2.4" height="2.4"/>
      <rect x="159.5" y="135.2" width="2.4" height="2.4"/>
      <polygon points="161.9 142.4 164.3 142.4 166.8 142.4 166.8 140 166.8 137.6 164.3 137.6 161.9 137.6 161.9 140 159.5 140 159.5 137.6 157 137.6 157 140 157 142.4 159.5 142.4 161.9 142.4"/>
      <polygon points="140 132.7 140 135.2 140 137.6 142.4 137.6 142.4 135.2 142.4 132.7 142.4 130.3 144.9 130.3 144.9 127.9 147.3 127.9 147.3 125.4 147.3 123 144.9 123 144.9 125.4 142.4 125.4 142.4 127.9 140 127.9 140 125.4 137.6 125.4 137.6 127.9 137.6 130.3 140 130.3 140 132.7"/>
      <polygon points="127.9 144.9 127.9 147.3 130.3 147.3 132.7 147.3 132.7 144.9 130.3 144.9 130.3 142.4 127.9 142.4 127.9 144.9"/>
      <rect x="130.3" y="140" width="2.4" height="2.4"/>
      <rect x="123" y="144.9" width="2.4" height="2.4"/>
      <path d="M144.9,144.9h2.4v2.4h2.4v2.4h4.9v-4.9h2.4v-2.4h-2.4v-4.9h-2.4v2.4h-2.4v-2.4h2.4v-2.4h-7.3v2.4h2.4v4.9h-2.4v-4.9h-2.4v2.4h-4.9v-9.7h-2.4v4.9h-9.7v2.4h2.4v2.4h2.4v-2.4h4.9v7.3h7.3v2.4h2.4v-2.4ZM152.2,142.4v2.4h-2.4v-2.4h2.4Z"/>
      <rect x="144.9" y="149.7" width="2.4" height="2.4"/>
      <rect x="144.9" y="154.6" width="2.4" height="2.4"/>
      <rect x="140" y="152.2" width="2.4" height="2.4"/>
    </g>
    <text class="st0" transform="translate(84.7 94.7)"><tspan x="0" y="0">CODER</tspan></text>
  </g>
</svg>